<svg xmlns="http://www.w3.org/2000/svg" height="512" viewBox="0 0 496.049 496.049" width="512" class="hovered-paths">
  <path d="M389.157 16h-282c-17.67 0-32 14.33-32 32v334l98 98h216c17.67 0 32-14.33 32-32V48c0-17.67-14.33-32-32-32z" />
  <path d="M393.209 66H157.157c-17.673 0-32 14.327-32 32v334l-50-50V48c0-17.673 14.327-32 32-32h282c40.3 0 35.692 50 4.052 50z" />
  <path d="M173.157 398v82l-98-98h82c8.837 0 16 7.163 16 16z" fill="#fff" />
  <path d="M389.157 0h-282c-26.468 0-48 21.533-48 48 0 358.314-1.942 338.722 4.692 345.319C169.584 499.053 163.18 493.696 168.52 495.312c3.346 1.012-10.648.688 220.637.688 26.468 0 48-21.533 48-48V48c0-26.467-21.532-48-48-48zm-232 441.373L113.784 398h43.373zm248 6.627c0 8.822-7.178 16-16 16h-200v-82c0-8.836-7.163-16-16-16h-82V48c0-8.822 7.178-16 16-16h282c8.822 0 16 7.178 16 16zm-51-132c0 8.836-7.163 16-16 16h-181c-8.837 0-16-7.164-16-16s7.163-16 16-16h181c8.837 0 16 7.164 16 16zm0-82c0 8.836-7.163 16-16 16h-181c-8.837 0-16-7.164-16-16s7.163-16 16-16h181c8.837 0 16 7.164 16 16zm0 164c0 8.836-7.163 16-16 16h-103c-8.837 0-16-7.164-16-16s7.163-16 16-16h103c8.837 0 16 7.164 16 16zM189.574 138.774c-6.249-6.248-6.249-16.379 0-22.627 6.248-6.248 16.379-6.248 22.627 0l21.226 21.226 67.187-67.186c6.248-6.249 16.379-6.249 22.627 0 6.249 6.248 6.249 16.379 0 22.627l-78.5 78.5c-6.247 6.248-16.379 6.249-22.627 0z" />
</svg>
