<svg xmlns="http://www.w3.org/2000/svg" height="512" viewBox="-40 0 512 512" width="512">
  <path d="M102.5 272H88v31h14.5c8.547 0 15.5-6.953 15.5-15.5s-6.953-15.5-15.5-15.5zm0 0M35 436h362v76H35zm0 0M397 120H277V0H35v180h362zm0 0" fill="#FFFFFF"/>
  <path d="M307 21.215V90h68.785zm0 0M208 272v76c16.543 0 30-13.457 30-30v-16c0-16.543-13.457-30-30-30zm0 0" fill="#FFFFFF"/>
  <path d="M0 210v196h432V210zm102.5 123H88v45H58V242h44.5c25.09 0 45.5 20.41 45.5 45.5S127.59 333 102.5 333zM268 318c0 33.086-26.914 60-60 60h-30V242h30c33.086 0 60 26.914 60 60zm107-46h-45v34.5h30v30h-30V378h-30V242h75zm0 0" fill="#FFFFFF"/>
</svg>
